#!OML:ASF H:\Terrain\Patient Classification 1\PLAYGROUND\JustinFriday\JustinFriday.ASF
:FULLY-SPECIFIED
:DEGREES
1876
root -14.4042 27.7784 -4.72522 321.849 -3.29749 3.29465
lowerback 43.1643 0.515489 1.11034
upperback 19.116 0.976872 0.136105
thorax 1.05855 0.559475 -0.750056
lowerneck 26.0721 -8.79609 -11.8815
upperneck 4.72243 -14.3719 5.04475
head -1.22038 -7.45569 4.40314
rclavicle 1.15295e-014 6.36111e-015
rhumerus 72.0165 -45.0566 -79.5823
rradius 97.6643
rwrist 12.6655
rhand -9.98018 -4.37618
rfingers 7.12502
rthumb 16.0027 -33.7352
lclavicle 1.15295e-014 6.36111e-015
lhumerus 59.878 28.7673 72.9264
lradius 115.961
lwrist -10.7045
lhand -14.6543 -3.10927
lfingers 7.12502
lthumb 11.4982 26.5554
rfemur -31.7419 1.92208 6.90407
rtibia 73.0697
rfoot 17.9899 -4.13277
rtoes 18.2457
lfemur -28.8976 5.94973 -5.11974
ltibia 64.1529
lfoot 20.538 -4.64017
ltoes 1.05807
1877
root -14.4125 27.7888 -4.71035 322.839 -3.79065 2.28248
lowerback 42.9704 0.234463 2.08427
upperback 19.3226 1.0062 0.465491
thorax 1.35857 0.626213 -0.901928
lowerneck 23.7061 -9.19876 -11.5018
upperneck 5.42219 -14.5784 4.25344
head -0.759044 -7.52037 3.96668
rclavicle 3.37934e-015 7.95139e-016
rhumerus 74.3046 -45.6984 -81.5134
rradius 98.4075
rwrist 13.358
rhand -8.38681 -4.47854
rfingers 7.12502
rthumb 17.5366 -33.7076
lclavicle 3.37934e-015 7.95139e-016
lhumerus 60.9559 29.6998 73.8524
lradius 117.073
lwrist -9.97954
lhand -14.4869 -2.91048
lfingers 7.12502
lthumb 11.6596 26.7451
rfemur -32.2984 1.96944 8.03374
rtibia 73.7306
rfoot 18.2782 -4.69112
rtoes 18.3339
lfemur -29.6578 5.81746 -3.65905
ltibia 64.4315
lfoot 21.1012 -4.39962
ltoes 1.73454
1878
root -14.4154 27.8133 -4.74482 324.332 -5.92396 -0.140959
lowerback 42.8404 -0.257304 4.74609
upperback 18.8796 1.41139 1.04762
thorax 0.985258 0.966721 -1.77242
lowerneck 26.8393 -8.8045 -11.9837
upperneck 3.32567 -14.4658 5.47663
head -1.70932 -7.48539 4.64376
rclavicle -1.53064e-014 8.74653e-015
rhumerus 74.4835 -46.272 -81.5716
rradius 98.4831
rwrist 13.2758
rhand -9.76148 -4.57775
rfingers 7.12502
rthumb 16.2133 -33.9198
lclavicle -1.53064e-014 8.74653e-015
lhumerus 61.1689 29.6965 74.162
lradius 117.789
lwrist -9.94051
lhand -14.4404 -2.40446
lfingers 7.12502
lthumb 11.7044 27.2486
rfemur -33.3097 3.04603 11.6883
rtibia 74.1598
rfoot 18.3926 -6.0276
rtoes 18.4962
lfemur -30.8538 6.66181 0.230919
ltibia 64.842
lfoot 21.9441 -4.78292
ltoes 1.97342
1879
root -14.3956 27.8734 -4.70844 323.855 -4.42681 2.02243
lowerback 43.295 0.157122 2.65321
upperback 19.1998 1.12691 0.522596
thorax 1.15264 0.719324 -1.17255
lowerneck 26.7492 -8.7202 -11.9946
upperneck 3.21576 -14.3439 5.61296
head -1.73389 -7.42837 4.68125
rclavicle 9.93923e-015 1.98785e-015
rhumerus 76.3246 -45.9186 -83.1949
rradius 99.2633
rwrist 11.9813
rhand -11.0692 -4.88291
rfingers 7.12502
rthumb 14.9538 -34.3231
lclavicle 9.93923e-015 1.98785e-015
lhumerus 61.9227 30.4718 74.7389
lradius 118.515
lwrist -9.34005
lhand -19.5808 -4.74675
lfingers 7.12502
lthumb 6.74451 25.1258
rfemur -32.3018 2.63995 8.28368
rtibia 74.9768
rfoot 18.4302 -4.77839
rtoes 17.2937
lfemur -29.5585 5.78623 -2.78147
ltibia 64.9347
lfoot 21.4276 -4.22921
ltoes 3.33348
1880
root -14.3967 27.892 -4.665 324.207 -3.4966 2.85826
lowerback 43.1818 0.289891 1.68412
upperback 19.4153 0.923552 0.397873
thorax 1.39897 0.560781 -0.742883
lowerneck 26.8237 -8.15157 -14.3507
upperneck 3.55058 -14.2034 8.46027
head -1.30893 -7.56386 5.87618
rclavicle 0 2.38542e-015
rhumerus 77.9171 -45.9318 -84.4362
rradius 99.9337
rwrist 10.6207
rhand -11.8548 -5.18496
rfingers 7.12502
rthumb 14.1969 -34.6798
lclavicle 0 2.38542e-015
lhumerus 62.688 31.8712 75.5945
lradius 119.674
lwrist -8.28632
lhand -12.6874 -0.900755
lfingers 7.12502
lthumb 13.3945 28.6487
rfemur -32.225 1.95732 6.54855
rtibia 75.9515
rfoot 18.5072 -3.95888
rtoes 16.0465
lfemur -29.4796 5.22251 -4.06876
ltibia 65.2041
lfoot 21.3664 -4.24594
ltoes 3.30594
1881
root -14.4024 27.9054 -4.63542 324.88 -3.07913 3.12766
lowerback 43.2498 0.31889 1.34077
upperback 19.2916 0.83774 0.348645
thorax 1.2338 0.495389 -0.593566
lowerneck 25.6102 -9.08366 -10.9794
upperneck 3.43462 -14.4874 3.59752
head -1.71432 -7.36746 3.86672
rclavicle 5.56597e-015 1.35174e-014
rhumerus 79.5137 -46.2024 -85.7975
rradius 100.582
rwrist 9.98104
rhand -11.3425 -5.55578
rfingers 7.12502
rthumb 14.6905 -35.0153
lclavicle 5.56597e-015 1.35174e-014
lhumerus 63.2824 31.9071 76.0981
lradius 120.367
lwrist -8.67327
lhand -13.2947 -1.63072
lfingers 7.12502
lthumb 12.8091 27.9563
rfemur -32.5523 1.53546 5.73062
rtibia 76.9934
rfoot 18.4114 -3.68326
rtoes 16.198
lfemur -29.8156 5.0697 -4.44066
ltibia 65.4746
lfoot 21.3221 -4.72947
ltoes 0.84809
1882
root -14.4009 27.9244 -4.61189 325.507 -3.0545 3.22609
lowerback 43.3709 0.298599 1.30633
upperback 18.5719 0.804321 0.186504
thorax 0.390845 0.478623 -0.742926
lowerneck 29.4038 -8.00494 -13.1634
upperneck 0.714243 -13.9426 7.69585
head -2.68295 -7.32271 5.71307
rclavicle 3.97569e-016 -2.78299e-015
rhumerus 79.0589 -46.52 -85.8926
rradius 101.009
rwrist 9.39534
rhand -10.4221 -5.71918
rfingers 7.12502
rthumb 15.5771 -35.1119
lclavicle 3.97569e-016 -2.78299e-015
lhumerus 62.2891 32.7994 75.4984
lradius 121.147
lwrist -7.80332
lhand -13.8053 -1.65225
lfingers 7.12502
lthumb 12.3169 27.965
rfemur -32.8338 1.61365 5.3102
rtibia 77.9212
rfoot 18.4614 -4.11316
rtoes 19.8616
lfemur -30.0417 5.16377 -4.39943
ltibia 65.8344
lfoot 21.2341 -5.03651
ltoes -0.0445698
1883
root -14.4018 27.9546 -4.59188 326.222 -3.2998 2.9237
lowerback 43.3103 0.213326 1.65271
upperback 18.5371 0.834608 0.298598
thorax 0.37268 0.508428 -0.810459
lowerneck 28.4529 -8.4459 -12.5232
upperneck 2.03772 -14.277 6.27466
head -2.2452 -7.41099 5.09056
rclavicle 5.1684e-015 2.38542e-015
rhumerus 79.8651 -46.8868 -86.5477
rradius 101.181
rwrist 8.9323
rhand -10.4881 -5.79909
rfingers 7.12502
rthumb 15.5135 -35.1967
lclavicle 5.1684e-015 2.38542e-015
lhumerus 62.7678 33.6774 76.0196
lradius 121.91
lwrist -7.24481
lhand -14.1378 -1.91275
lfingers 7.12502
lthumb 11.9962 27.7235
rfemur -33.0865 1.76204 5.523
rtibia 78.672
rfoot 18.7791 -4.28256
rtoes 21.9237
lfemur -30.3417 5.25651 -3.80759
ltibia 66.1197
lfoot 21.3465 -5.01297
ltoes 0.188573
1884
root -14.4035 27.9829 -4.57791 327.061 -3.95147 2.23023
lowerback 43.373 0.133473 2.39346
upperback 18.6532 1.02283 0.576791
thorax 0.504324 0.633309 -0.955043
lowerneck 26.7115 -8.92803 -11.3585
upperneck 2.64111 -14.4525 4.62588
head -2.00976 -7.38927 4.31612
rclavicle 1.19271e-015 1.03368e-014
rhumerus 82.7623 -46.3798 -89.033
rradius 102.403
rwrist 8.90709
rhand -11.5805 -5.80826
rfingers 7.12502
rthumb 14.4612 -35.2844
lclavicle 1.19271e-015 1.03368e-014
lhumerus 63.9517 34.3965 77.1506
lradius 122.823
lwrist -6.82189
lhand -13.7931 -1.86317
lfingers 7.12502
lthumb 12.3286 27.7534
rfemur -33.5992 2.04318 6.45393
rtibia 79.2994
rfoot 19.0657 -3.84644
rtoes 18.747
lfemur -30.8077 5.50212 -2.56894
ltibia 66.4908
lfoot 21.3695 -5.17972
ltoes -0.270008
